<mxfile host="app.diagrams.net" modified="2023-11-08T17:06:40.876Z" agent="Mozilla/5.0 (Windows NT 10.0; Win64; x64) AppleWebKit/537.36 (KHTML, like Gecko) Chrome/119.0.0.0 Safari/537.36" version="22.0.8" etag="LiIPH0gbDd6aX9vZQvD-" type="github">
  <diagram name="PÃ¡gina-1" id="uUOnpAUSncAbqbI0h9Ee">
    <mxGraphModel>
      <root>
        <mxCell id="0" />
        <mxCell id="1" parent="0" />
      </root>
    </mxGraphModel>
  </diagram>
</mxfile>
